<?xml version="1.0" encoding="utf-8"?>
<!-- Generator: Adobe Illustrator 23.0.3, SVG Export Plug-In . SVG Version: 6.00 Build 0)  -->
<svg version="1.1" id="Layer_1" xmlns="http://www.w3.org/2000/svg" xmlns:xlink="http://www.w3.org/1999/xlink" x="0px" y="0px"
	 viewBox="0 0 457.71 574.14" style="enable-background:new 0 0 457.71 574.14;" xml:space="preserve">
<style type="text/css">
	.st0{fill:#FFFFFF;}
</style>
<g>
	<g>
		<g>
			<path class="st0" d="M436.38,515.89c1.29-2.38,2.58-4.73,3.79-7.12c1.6-3.14,3.05-6.35,4.05-9.82c1.24-4.23,3.61-8.13,5.27-12.25
				c0.23-0.57,0.49-1.15,0.69-1.74c0.71-2.1,1.38-4.22,2.02-6.33c2.62-8.73,4.25-17.59,2.23-27.01c-0.07-0.29-0.09-0.57-0.16-0.87
				c-0.86-3.61-0.25-7.86-0.25-11.75c0-0.79-0.09-1.57-0.13-2.36c-0.09-1.74-0.26-3.47-0.5-5.2c-0.6-4.22-1.51-8.43-2.32-12.61
				c-0.55-2.9-1.88-5.66-3.13-9.29c2.91-2.33,1.21-5-0.49-7.64c-0.44-0.69-0.87-1.36-1.24-2.04c-0.03-0.06-0.07-0.11-0.1-0.17
				c-2.12-4.06-4.29-7.9-3.75-12.73c0.3-2.67-0.37-5.02-1.65-7.68c-1.16-2.42-2.32-5.69-2.27-8.56c0.08-5.58-2.8-7.77-7.56-8.6
				c-0.02,0.02-0.04,0.05-0.06,0.07c-0.06,0.06-0.13,0.12-0.19,0.19c-0.08,4.84-1.54,6.3-7.71,8.14c-2.05-1.56-3.81-2.9-5.57-4.24
				c1.46-4.98,5.83-0.31,8.17-2.84c0.62,1.35,1.09,2.37,1.25,2.7c1.38-1.34,2.63-2.55,3.86-3.76c0-0.12,0.02-0.2,0.02-0.32
				c0.08,0.01,0.16,0.04,0.24,0.06c0.54-0.58,1.01-1.45,1.64-1.58c1.8-0.38,3.65-0.43,5.49-0.61c-1.11-7.23-3-13.21-11.81-13.51
				c0.15-0.31,0.28-0.63,0.42-0.94c1.57-0.73,3.14-1.46,4.71-2.17c-0.1-0.5-0.22-1-0.32-1.5c-3.25,0.02-6.5,0.04-10.27,0.07
				c0.85,1.24,1.37,1.99,2.29,3.36c-9.54-1.84-18.77-2.64-27.64,0.1c1.84,5.55,1.79,11.48-1.13,16.42
				c2.27,8.05,0.58,16.88-4.53,23.41c2.13,8.99-0.59,19.77-6.21,28.31c-1.5,2.28-3.21,4.39-5.1,6.27c-0.19,0.19-0.36,0.42-0.55,0.61
				c0.03,0.34,0,0.69,0.03,1.04c0.03,0.41,0.03,0.81,0.04,1.21c0.02,0.83,0.03,1.66-0.02,2.49c-0.51,7.32-3.96,14.22-9.95,19.31
				c-1.01,0.86-2.09,1.66-3.26,2.4c-0.32,0.21-0.65,0.43-0.99,0.63c-0.33,0.2-0.63,0.43-0.97,0.63c-0.4,0.22-0.83,0.34-1.24,0.48
				c-0.81,0.27-1.63,0.44-2.46,0.43c-1.42,0-2.83-0.38-4.08-1.18c-0.22,0.26-0.46,0.49-0.68,0.74c-0.47,0.51-0.96,1-1.46,1.46
				c-0.7,0.65-1.42,1.26-2.15,1.82c-0.61,0.45-1.22,0.88-1.85,1.27c-1.32,0.81-2.69,1.43-4.07,1.9c-0.79,0.26-1.58,0.47-2.36,0.62
				c-0.13,0.02-0.27,0.06-0.41,0.08c-1.44,8.37-6.64,15.36-17.29,17.55c-4.94,1.01-8.87,0.25-11.89-1.62
				c-4.08,2.85-9.45,3.39-15.99-0.18c-6.15,2.71-14.36,1.65-21.61-3.67c-3.75-2.75-6.27-7.35-7.35-12.23
				c-2.06-0.93-4.02-2.15-5.69-3.77c-3.01-2.92-5.42-7.84-6.64-13.12c-0.18,0.02-0.35,0.08-0.54,0.1
				c-5.47,0.56-10.81,2.57-16.19,3.93c-0.11-0.44-0.21-0.87-0.31-1.3c5.41-1.49,11.02-2.52,16.22-4.57
				c0.15-0.06,0.27-0.11,0.42-0.17c-0.03-0.2-0.08-0.4-0.11-0.59c-1.14-1.15-2.18-2.43-3.18-3.76c-4.62,2.1-9.24,4.2-13.86,6.32
				c-0.21-0.41-0.42-0.82-0.62-1.22c3.33-2.46,8.51-2.49,11.22-6.06c-6.31-1.52-10.27-5.51-12.36-10.74
				c-0.88,0.61-1.77,1.22-2.65,1.84c-0.45-0.66-0.91-1.33-1.37-2c1.09-0.69,2.18-1.39,3.27-2.09c-0.55-1.94-0.88-4.01-1-6.15
				c-0.02,0-0.03,0.01-0.04,0.02c-0.2-0.4-0.39-0.79-0.58-1.18c0.18-0.13,0.37-0.25,0.56-0.37c-0.05-4.46,0.74-9.17,2.19-13.68
				c0.47-1.47,1.01-2.92,1.62-4.33c0.46-1.06,0.95-2.09,1.48-3.09c0.59-1.13,1.23-2.21,1.91-3.27c0.21-0.33,0.41-0.66,0.63-0.98
				c2.34-3.41,5.1-6.28,8.16-8.24c0.73-0.48,1.48-0.91,2.25-1.28c-0.44-4.01-3.32-6.56-6.27-9.73c-0.56,2.14-0.91,3.42-1.2,4.51
				c-0.3-0.33-0.58-0.63-0.87-0.96c-2.34-2.55-4.58-5.03-6.91-7.37c-0.24-0.24-0.47-0.5-0.71-0.74c-0.58-0.57-2.05-0.57-2.98-0.34
				c-0.97,0.24-1.86,0.8-3.02,1.03c-0.26,0.05-0.51,0.1-0.8,0.11c0.16-0.19,0.34-0.38,0.5-0.56c0.65-0.74,1.31-1.48,2-2.26
				c-2.25-1.23-4.37-2.41-6.52-3.56c-0.99-0.53-2.15-1.56-3.03-1.37c-3.58,0.78-7.5,1.24-10.53,3.08
				c-7.37,4.49-12.87,11.18-15.82,19.15c-2.06,5.58-2.09,11.92-3.01,17.92c-0.13,0.8-0.03,1.63-0.16,2.42
				c-0.07,0.38-0.1,0.67-0.16,1c-0.67,4.6,0.27,5.21,5.54,3.83c1-0.26,2.01-0.57,3.01-0.89c2.66-0.85,5.38-1.88,8.55-2.95
				c-2.37,2.72-4.99,4.21-7.73,5.05c-1.42,0.43-2.87,0.7-4.33,0.85c-0.99,0.1-1.8,0.37-2.49,0.75c-2.34,1.26-3.27,3.78-4.37,5.93
				c-0.94,1.82,0.17,3.58,2.11,4.09c0.34,0.09,0.7,0.15,1.09,0.16c0.87,0.01,1.75,0.01,2.61-0.02c0.12-0.01,0.22-0.01,0.33-0.01
				c2.51-0.09,4.91-0.3,6.9-0.4c0.21,0.71,0.44,1.48,0.66,2.23c0.34,1.15,0.71,2.38,1.09,3.66c0.18,0.61,0.35,1.16,0.54,1.8
				c-2.06,0.14-4.27,0.47-6.54,0.35c-1.81-0.1-3.66-0.48-5.5-1.51c-3.42-1.92-10.31,0.16-12.47,3.59c-0.6,0.96-0.85,2.2-1.59,2.99
				c-2.43,2.6-3.53,5.11-3.18,7.56c0.19,1.35,0.8,2.68,1.95,4c0.42,0.47,0.91,0.93,1.46,1.4c0.11,0.09,0.18,0.19,0.29,0.28
				c0.13,0.09-0.08,0.59-0.2,1.26c-0.08-0.02-0.17-0.04-0.26-0.06c-1.03-0.24-2.07-0.48-3.38-0.79c-0.45-0.1-0.94-0.21-1.46-0.34
				c-0.14,0.54-0.26,1.08-0.39,1.62c-1.52,6.2-3.02,12.35-4.58,18.71c-0.47,1.93-0.94,3.87-1.43,5.85c-1.01-1.9-2.31-3.47-3.74-4.92
				c-0.14-0.14-0.27-0.28-0.4-0.41c-2.21-2.11-4.8-3.85-7.77-5.36c-0.04-0.01-0.06-0.03-0.08-0.04c-1.63,4.11-8.77,1.37-8.59,7.43
				c-3.29-0.29-6.4-0.57-10.31-0.93c-0.42-0.55-1.38-1.81-2.44-3.2c-4.86,3.36-6.19-3.03-9.94-3.95c2.77-1.04,5.55-2.07,8.32-3.12
				c-0.05-0.58-0.11-1.14-0.17-1.72c-4.15-0.51-8.31-1.35-12.46-1.31c-1.3,0.01-2.58,2.37-3.88,3.65c1.34,1.22,2.67,2.43,4.1,3.73
				c-3.04,1.16-6.58,2.93-3.87,8.52c1.03-1.38,1.96-2.86,3.13-4.1c0.77-0.83,1.85-1.53,2.92-1.88c0.47-0.15,1.88,0.88,1.83,1.05
				c-0.34,1.13-0.77,2.37-1.56,3.21c-3.25,3.45-6.64,6.76-10.14,10.29c-0.58-2.02-0.63-4.65-1.98-6.03
				c-0.98-1.01-3.65-0.36-5.99-0.46c0.97-2.15,1.23-4.08,1.04-5.87c-0.45-4.17-3.39-7.58-5.99-11.18c-1-1.39-1.96-2.81-2.69-4.32
				c-0.44-0.09-0.87-0.18-1.31-0.28c-1.15,2.39-2.29,4.77-3.44,7.15c-0.51-0.24-1.01-0.49-1.52-0.73c0.13-0.95,0.09-1.98,0.43-2.86
				c0.93-2.4,1.74-4.93,3.11-7.07c1.92-3.01-0.07-4.43-1.88-6.03c-1.98-1.73-3.71-1.29-5.49,0.53c-1.06,1.09-2.54,1.8-3.18,2.24
				c0.61-3.91,1.6-8.16,1.86-12.46c0.2-3.32-1.22-5.13-5.2-3.55c-2.9,1.15-6.19,1.34-10.02,2.09c-0.69-3.53-1.07-6.55-1.92-9.43
				c-0.54-1.84-1.24-3.65-2.02-5.43c-0.39-0.87-0.76-1.76-1.2-2.6c-0.03-0.04-0.04-0.09-0.07-0.13c-1.31-2.46-4.3-2.32-5.69,0.27
				c-0.14,0.26-0.28,0.5-0.43,0.75c-0.68,1.2-1.42,2.25-2.32,3.04c-1.32,1.17-2.99,1.8-5.48,1.49c-0.25-0.03-0.52,0.09-0.81,0.28
				c-1.04,0.71-2.27,2.64-3.65,4.04c-0.01,0.01-0.02,0.02-0.03,0.03c-0.87-0.46-1.88-0.99-2.94-1.54c-1.56-0.82-3.28-1.72-5.07-2.66
				c-0.58,0.46-1.09,1.33-1.52,2.43c-0.6,1.57-1.02,3.62-1.19,5.71c-0.08,0.98-0.1,1.96-0.07,2.9c0.09,2.51,0.57,4.74,1.59,5.78
				c-1.58,2.8-3.92,1.53-5.41,0.43c-0.22-0.16-0.44-0.28-0.65-0.43c-0.65-0.42-1.29-0.78-1.92-1.01c-1.45-0.55-2.89-0.59-4.36-0.24
				c-0.69,0.16-1.4,0.4-2.12,0.75c-0.4,0.2-0.81,0.41-1.24,0.66c-1.09,0.65-3.04,0.32-4.44-0.09c-2.08-0.61-4.03-1.68-6.43-2.73
				c-1.03,4.47,1.22,6.57,3.86,8.46c3.39,2.43,6.83,4.78,10.18,7.27c5.92,4.39,12.58,7.13,19.42,9.5c1.68,0.59,3.38,1.15,5.08,1.71
				c2.74,0.9,5.36,2.26,8.14,2.92c1.62,0.38,3.27,0.65,4.93,0.9c2.02,0.31,4.04,0.58,6.1,0.9c0.78,0.85,1.62,2.36,2.91,3.04
				c4.65,2.48,9.27,5.25,14.26,6.8c3.88,1.21,7.23,2.94,10.55,5.13c0.12,0.08,0.24,0.15,0.36,0.24c3.07,2.02,6.17,4.02,9.27,6
				c3.75,2.39,7.51,4.78,11.27,7.15c1.13,0.71,2.45,1.11,3.9,1.74c-0.28,3.23,1.18,5.6,4.83,6.99c1.93,0.75,4.56,2.41,4.92,4.07
				c1.38,6.42,6.81,8.72,11.2,11.96c3.83,2.83,8.19,4.93,12.21,7.53c0.83,0.53,1.56,1.76,1.68,2.73c0.48,4.28,2.66,7.39,5.47,9.92
				c0.66,0.6,1.36,1.17,2.08,1.71c0.54,0.4,1.09,0.79,1.64,1.16c0.16,0.11,0.31,0.23,0.47,0.33c2.4,1.58,5.42,2.57,8.39,3.04
				c0.69,0.11,1.37,0.22,2.04,0.28c4.34,0.36,6.64,3.58,9.93,5.36c0.81,0.45,1.63,1.64,2.29,1.52c0.09-0.01,0.17,0,0.26-0.02
				c4.05-0.56,7.07,1.73,10.35,3.34c0.41,0.2,0.83,0.38,1.25,0.55c0.1,0.04,0.2,0.09,0.3,0.13c1.08,0.42,2.19,0.74,3.29,1.09
				c1.4,0.45,2.8,0.93,4.21,1.36c0.78,0.24,1.55,0.48,2.32,0.73c0.02,0,0.03,0,0.04,0.01c0.53,0.17,1.09,0.32,1.62,0.51
				c0.26,0.09,0.52,0.18,0.8,0.29c1.13,0.42,2.29,0.98,2.86,1.84c0.17,0.26,0.37,0.48,0.55,0.72c0.63,0.83,1.31,1.59,2.04,2.24
				c0.07,0.06,0.15,0.11,0.22,0.17c2.83,2.38,6.32,3.61,9.89,4.88c0.9,0.31,1.77,0.7,2.63,1.11c1.86,0.88,3.67,1.9,5.54,2.75
				c2.61,1.19,5.19,3.01,8.18,0.91c4.17,4.31,10.95-1.24,15.09,4.19c2.14,2.8,5.81,0.85,8-0.22c2.16-1.05,3.65-0.63,5.43-0.2
				c4.8,1.15,9.07,0.81,14.01-1.03c3.94-1.47,7.22-4.11,11.41-5.3c5.2-1.48,10.29-4.7,14.37-8.36c2.62-2.34,3.34-6.81,5.05-10.63
				c1.68,3.93,5.73-0.13,8.74,2.79c1.61,1.55,6.58-0.36,10.04-1.62c-2.01-0.74-4.02-1.46-6.84-2.48c3.1-3.97,5.77-7.63,8.76-11
				c0.6-0.68,2.38-0.32,3.78-0.45c1.86-4.78,0.61-9.41-1.66-14.4c-1.4-3.08-1.27-6.85-1.53-10.45c-0.04-0.49-0.06-1-0.12-1.48
				c0.53-0.12,1.07-0.26,1.6-0.38c0.06,0.22,0.13,0.44,0.2,0.65c2.54,8.26,5.08,16.51,7.6,24.72c6.33-1.36,6.44-1.55,5.13-8.28
				c1.05,0.92,2.53,1.65,3.08,2.8c2.41,5.12,6.37,7.65,11.85,8.66c2.92,0.53,5.55,2.8,8.46,3.2c5.98,0.81,11.85,1.57,17.86-1.68
				c4.92-2.66,10.86-3.41,16.33-5.08c0.9-0.27,2.22-0.73,2.46-1.42c2.02-5.81,7.32-6.24,12.02-8.09
				C430.95,521.61,434.29,519.73,436.38,515.89z M182.27,455.78c4.49-0.65,8.73,1.37,13.11,1.96c-0.04,0.31-0.08,0.63-0.11,0.94
				c-4.39-0.32-8.79-0.65-13.17-0.97C182.15,457.07,182.21,456.42,182.27,455.78z M335.7,516.58c-0.6,3.57-2.19,6.97-3.11,10.51
				c-0.85,3.32-1.39,6.71-2.07,10.06c-0.22-0.09-0.44-0.19-0.67-0.3c-0.18-4.47-0.36-8.94-0.54-13.6c0.77-1.44,2.23-3.32,2.82-5.44
				c0.06-0.19,0.08-0.38,0.13-0.57c0.99-3.75,1.58-7.62,2.33-11.44c0.49,0.06,0.98,0.11,1.47,0.16c-0.06,2.45,0.05,4.93-0.06,7.37
				C335.96,514.43,335.88,515.51,335.7,516.58z"/>
			<path class="st0" d="M23.14,417.94c0.3,0.41,0.51,1.04,0.82,1.09c1.12,0.17,2.6,0.62,3.36,0.1c0.82-0.55,1.31-1.76,1.51-3.08
				c0.11-0.66,0.14-1.34,0.09-2c-0.09-1.14-0.39-2.2-0.93-2.87c-0.16-0.19-0.33-0.4-0.49-0.59c-0.96-1.16-1.97-2.31-3.22-3.77
				c0.49-0.43,0.93-0.8,1.4-1.2c2.15-1.85,4.13-3.56,6.22-5.36c-0.92-0.57-2-1.24-3.23-2c1.04-0.6,1.91-1.03,2.72-1.37
				c3.57-1.51,5.16-0.45,7.09,3.63c0.39,0.81,1.71,1.83,2.43,1.71c0.48-0.07,0.96-0.08,1.44-0.06c2.86,0.17,5.84,1.77,8.33,0.4
				c0.72-0.4,1.4-1.05,2.04-2.06c0.71,0.75,1.33,1.4,1.92,2.02c0.94,0.99,1.79,1.88,2.71,2.85c0.83-1.78,1.15-3.38,1.09-4.76
				c-0.06-1.38-0.55-2.53-1.38-3.42c-0.24-0.26-0.46-0.53-0.77-0.73c-0.96-0.67-2.21-1.11-3.71-1.25c-0.81-0.08-1.68-0.1-2.63-0.01
				c-2.91,0.27-5.63,1.4-7.44-2.04c-0.01-0.03-0.04-0.05-0.05-0.08c-0.3-0.6-1.73-0.7-2.67-0.91c-0.16-0.04-0.33-0.06-0.49-0.08
				c-2.82-0.47-6.16,0.31-7.63-3.37c-0.04-0.1-0.31-0.16-0.45-0.13c-2.65,0.55-5.36,0.27-8.06,0.14c-2.83-0.14-5.65-0.1-8.35,1.26
				c-0.13,0.06-0.29,0.15-0.42,0.24c-0.16,0.1-0.28,0.22-0.32,0.36c-1.24,4.84-5.44,6-9.25,7.95c-0.15,0.08-0.26,0.18-0.4,0.27
				c-2.64,1.68-2.59,5.17-3.74,7.91c-2.01,4.85,0.63,7.25,2.96,10.13c0.26,0.32,0.51,0.58,0.76,0.84c2.45,2.53,4.44,2.05,6.74-1.4
				c0.62-0.93,1.19-1.9,1.76-2.83c1.39,0.05,2.77,0.1,4.15,0.14c1.85,0.07,3.75,0.14,5.67,0.2c0.86,0.03,1.68,0.06,2.57,0.09
				C24.46,415.48,23.83,416.65,23.14,417.94z M15.28,408.44c-1.67-0.27-2.83,0.59-3.68,2.18c-0.22,0.41-0.43,0.86-0.61,1.36
				c-0.18-0.75-0.22-1.38-0.2-1.95c0.11-2.75,2.33-3.48,4.58-3.68c0.03,0,0.07,0,0.1-0.01c0.03-0.05,0.05-0.09,0.08-0.15
				c0.71-1.39,1.3-2.57,1.87-3.69c0.27-0.53,0.54-1.06,0.8-1.58c0.55,0.25,1.11,0.51,1.66,0.77c-0.19,0.49-0.39,1-0.58,1.49
				c-0.47,1.21-0.96,2.47-1.48,3.78c-0.26,0.69-0.52,1.33-0.81,2.06C16.37,408.69,15.81,408.52,15.28,408.44z"/>
			<path class="st0" d="M183.19,276.25c-0.3-0.95-0.61-1.98-0.9-2.95c0.39-0.28,0.63-0.58,0.9-0.62c3.96-0.55,5.5-3.2,7.27-6.59
				c2-3.82,0.93-8.82,5.06-11.85c1.13-0.83,0.84-3.6,1.28-5.86c3.74-0.49,4.94-2.69,3.5-6.68c-1.61-4.5-2.83-9.13-4.47-14.5
				c-1.34,0.46-2.51,0.85-3.58,1.21c-1.09,0.37-2.09,0.71-3.08,1.05c-0.16-0.57-0.22-1.05-0.16-1.56c0.14-1.11,0.94-2.39,3.08-5.33
				c-1.1-3.42-1.88-6.73-3.21-9.8c-2.15-4.98-5.35-9.25-10.71-11.02c-1.64-0.54-3.71,0.19-5.59,0.35c0-0.02,0-0.03,0-0.04
				c-6.43,6.1-12.07,13.36-22,14.2c-4.9,0.42-7.39,3.14-7.16,8.12c0.23,4.76,0.16,9.64,3.64,13.81c1.87,2.25,3.14,5.36,3.71,8.27
				c1.5,7.84,8.04,12.22,11.91,18.41c2.42,3.89,4.87,7.78,7.41,11.6c1.18,1.76,2.62,3.34,3.91,4.97
				C177.48,279.47,180.25,277.91,183.19,276.25z M185.68,227.61c0.18,0.41,0.35,0.83,0.53,1.25c0.87,2.06,1.76,4.17,2.52,5.99
				c-1.87-0.93-3.81-1.91-5.58-2.8c-0.38-0.19-0.8-0.4-1.15-0.58C183.29,230.12,184.37,228.99,185.68,227.61z M179.05,235.1
				c0.93,0.05,1.76,0.17,2.53,0.36c5.08,1.21,7.11,5.24,8.26,10.57c0.04,0.19,0.1,0.37,0.14,0.57c-0.1-0.12-0.17-0.21-0.26-0.32
				c-1.15-1.44-2.05-2.57-2.91-3.65c-0.27,0.11-0.54,0.22-0.82,0.33c0.28,1.4,0.56,2.81,0.83,4.21c-1.66-2.39-3.42-4.3-5.78-5.39
				c-0.69-0.31-1.42-0.54-2.22-0.71c-0.75-0.16-1.54-0.28-2.42-0.3c0.44-0.22,0.9-0.45,1.34-0.67c0.77-0.39,1.53-0.77,2.31-1.17
				C179.67,237.45,179.34,236.21,179.05,235.1z"/>
			<path class="st0" d="M448.07,150.75c1.2-1,1.84-2.7,2.08-5.44c0.37-4.25,1.84-7.9,3.09-11.83c0.4-1.27,0.71-2.57,1.02-3.86
				c1.4-5.79,2.06-11.82,3.08-17.73c1.46-8.4-1.52-15.11-7.07-21.42c-2.23-2.53-2.95-6.42-5.43-9.32
				c-4.25-4.97-13.67-6.78-18.64-2.55c-4.77,4.07-8.24,8.65-9.92,15.41c-1.59,6.37-3.21,12.71-3.89,19.21
				c-0.49,4.74-0.03,9.58,0,14.37c0,1.94,0.09,3.88,0,5.81c-0.34,7.36,3.65,17.19,12.95,18.27c1.44,0.16,2.78,1.03,4.17,1.57
				l-0.44,1.36c-1.26-0.31-2.51-0.84-3.78-0.89c-3.17-0.09-6.38-0.2-9.5,0.21c-0.56,0.07-1.25,0.46-1.84,0.99
				c-0.59,0.52-1.07,1.17-1.19,1.73c-0.76,3.73-2,7.8-1.22,11.34c1.96,8.96,1.4,17.59-1.34,26.15c-1.01,3.14-0.79,5.68,1.7,7.82
				c-0.15,0.27-0.2,0.45-0.3,0.51c-4.17,2.25-1.42,7.75-4.34,10.02c-3.59,2.78-5.1,5.96-3.79,9.96c1.35,4.17,2.75,8.06,1.43,12.57
				c-0.19,0.66,0.31,1.89,0.97,2.8c0.4,0.55,0.86,0.98,1.27,1.09c0.87,0.24,1.54,0.57,2.09,0.97c0.08,0.06,0.16,0.13,0.24,0.19
				c1.56,1.3,1.76,3.27,1.76,5.53c0,0.36,0.55,0.72,1.22,1.54c0.62-1.27,1.09-2.23,1.63-3.36c0.35,0.35,0.94,0.72,0.9,0.97
				c-0.18,1.07-0.46,2.14-0.87,3.14c-2.67,6.42-1,9.4,5.68,10.67c5.67-6.02,3.58-12.74,1.56-19.76c2.1-1,3.9-1.88,5.71-2.72
				c0.42-0.19,1.13-0.15,1.27-0.43c1.74-3.33,3.91-6.56,4.92-10.12c1.04-3.67-1.28-7.09-3.55-9.72c-1.18-1.38-4.08-1.27-7.37-2.15
				c5.28-1.05,9.57-1.89,14.46-2.86c-1.39-4.88-7.3-1.55-9.88-5.47c4.59,0.38,8.71,0.71,12.73,1.04c2.91-3.46,3.69-7.03,3.31-11.35
				c-0.33-3.73,0.55-7.61,1.17-11.38c0.79-4.88,1.38-9.88,2.9-14.55c2.12-6.56-1.88-14.56-8.88-17.6c1.07,0.07,2.15,0.1,3.21,0.23
				C444.55,152.1,446.68,151.89,448.07,150.75z"/>
			<path class="st0" d="M362.17,311.26c1.38,0.5,2.76,1.38,3.79,2.53c2.22,0.81,4.31,2,6.19,3.43c3.85,2.94,6.79,6.96,7.88,11.27
				c0.57,0.22,1.14,0.5,1.7,0.77c5.06,2.49,9.38,7.04,12.05,12.29c6.7,0.31,13.22-0.53,19.54-3.46c2.31,4.19,13.54,1.54,22.11-5.73
				c-1.82-2.98-3.77-6.1-5.61-9.27c-0.49-0.85-1.15-2.15-0.83-2.81c1.96-4.1,0-7.95-1.51-11.21c-0.85-1.84-4.79-2.19-7.31-3.3
				c-1.1-0.5-2.1-1.25-2.89-1.73c2.95-3.04,5.22-5.37,7.95-8.2c-0.13-0.68-0.44-1.92-0.61-3.17c-0.8-6.13-3.64-8.68-9.89-9.59
				c-1.52-0.22-3.06-0.43-4.6-0.68c-3.04-0.47-6.06-1.08-8.73-2.35c-2.88-1.37-5.58-1.24-8.29-1.01c-1.16,0.1-2.33,0.21-3.5,0.24
				c-3.08,0.05-4.27,2.53-5.24,4.97c-0.57,1.41-0.94,2.9-1.4,4.35c-1.44-1.01-2.86-2.01-4.67-3.29c1.37-0.27,2.25-0.44,3.7-0.73
				c-0.49-1.43-0.97-2.84-1.41-4.2c-5.8,0.88-6.86,0.32-9.5-4.51c-1.64-3-4.27-3.9-7.64-3.85c-7.39,0.12-13.11-3.51-18.05-8.45
				c-0.85,0.55-1.92,1.24-3.6,2.33c-0.23-2.74,3.35-4.52-0.15-6.05c-0.32-0.14-0.61-0.22-0.91-0.33c-3.59-1.24-6.22-0.13-8.7,3.64
				c-0.41-0.24-0.83-0.55-1.27-0.87c-1.03-0.77-2.07-1.57-2.9-1.4c-2.05,0.43-3.96,1.92-5.74,3.23c-2.13,1.56-3.91,3.64-6.12,5.04
				c-3.04,1.94-4.64,0.47-5.56-2.75c-0.88-3.09-4.09-5.79-7.81-7.39c-0.52-0.22-1.05-0.42-1.58-0.59c-2.95-0.98-6.06-1.22-8.5-0.4
				c-0.19,0.06-0.39,0.11-0.57,0.19c-0.95,0.41-2.36,0.69-3.18,0.29c-1.62-0.8-3.22-1.26-4.82-1.49c-3.41-0.48-6.77,0.23-10.06,1.87
				c-3.8,1.9-7.53,3.95-11.21,6.06c-1.14,0.66-2.29,1.29-3.42,1.96c-0.32,0.2-0.56,0.53-0.79,0.93c-0.06,0.09-0.11,0.2-0.16,0.31
				c-0.38,0.77-0.72,1.74-1.24,2.71c3.81-0.22,5.29-0.28,6.54,1.3c0.8,1.03,1.5,2.72,2.64,5.55c0.27-1.92,0.61-3.85,0.78-5.78
				c0.01-0.08,0.02-0.16,0.03-0.24c0.04-0.51,0.18-0.88,0.28-1.31c0.61-2.5,2.25-3.77,5.17-3.79c0.54-0.01,1.1-0.06,1.64-0.08
				c1.87-0.09,3.77-0.25,5.95-0.39c1.66,0.9,2.61,2.06,3.13,3.4c0.56,1.43,0.64,3.06,0.54,4.78c-0.06,1.09-0.19,2.21-0.29,3.34
				c-0.15,1.59-0.67,2.69-1.39,3.5c-2.25,2.51-6.53,2.28-8.51,5.22c-1.61-1.65-2.72-2.8-4.08-4.2c-1.43,0.54-3,1.13-5.2,1.96
				c1.79,1.41,3.44,2.72,5.12,4.05c-3.13,0.04-6.22,0.21-9.27-0.02c-0.43-0.03-0.74-1.98-1.29-3.59c-2.42-0.81-3.85,0.93-4.04,3.53
				c-2.07-2.54-4.11-5.06-6.15-7.57c0.26-0.3,0.52-0.59,0.79-0.89c1.45,0.78,2.9,1.57,4.78,2.59c0.39-2.67,2.88-4.98,1.8-7.67
				c-0.26-0.67-0.68-1.34-1.47-2.06c-0.36-0.32,0.01-1.43,0.39-3c0.13-0.51,0.26-1.06,0.36-1.66c-2.98,1.42-6.18,1.89-7.13,3.6
				c-2.23,4.01-5.87,4.74-9.41,4.84c-3.83,0.12-7.69-1.17-11.56-1.67c-1.85-0.24-3.81-0.39-5.61-0.04c-3.49,0.71-6.9,1.8-11.04,2.93
				c-0.05,0.21-0.29,1.37-0.53,2.53c-0.43-0.06-0.96-0.07-0.98-0.16c-0.45-2.69-1.16-3.77-4.53-2.78c-2.74,0.81-5.71,0.62-7.34,3.06
				c-0.28,0.43-0.54,0.91-0.73,1.52c-1.49-0.4-2.72,0-3.9,0.62c-2.23,1.18-4.29,3.2-7.57,2.48c-5.68-1.24-8.44,3.12-6.26,9.14
				c1.83,5.03,1.08,9.73,0.66,14.78c-0.36,4.17,1.07,8.51,1.96,12.74c0.42,2,1.26,3.95,2.19,5.79c0.31,0.59,0.69,1.15,1.05,1.7
				c0.78,1.21,1.6,2.39,2.35,3.62c3.44,5.66,10.01,6.21,14.91,9.42c1.03,0.67,2.05,1.31,3.07,1.89c3.2,1.82,6.44,3.1,10.29,3.23
				c0.82,0.03,1.59,0.91,2.41,1.38c1.37,0.77,2.74,2.15,4.13,2.17c4.55,0.08,9.11-0.34,13.67-0.57c0.95-0.04,1.98,0.17,2.82-0.15
				c1.17-0.44,2.21-1.26,3.3-1.92c-0.11-0.47-0.23-0.94-0.35-1.41c1.2,0.6,2.41,1.18,3.6,1.81c3.36,1.8,6.6,4.69,10.09,5.15
				c-1.04-10.8,3.67-23.08,12.67-28.7c-3.05-0.54-6.11-1.16-9.16-1.94c4.96-2.88,11.36,0.17,16.31-2.43
				c0.9-2.07,2.83-3.65,4.94-4.42c0.27-0.09,0.55-0.21,0.84-0.34c-5.04-2.54-10.31-4.62-14.1-9.39c-0.25,2.48-0.37,3.71-0.5,4.94
				c0.3-0.17,0.59-0.34,0.89-0.51c1.37,1.91,2.75,3.82,4.13,5.73c-0.27,0.16-0.54,0.33-0.82,0.5c-1.63-1.28-3.58-2.33-4.82-3.92
				c-1.3-1.66-2.68-3.85-2.67-5.81c0.01-2.75-1.23-4.09-3.1-5.54c-3.48-2.69-6.85-5.53-9.79-8.92
				c12.42,5.29,23.24,12.75,33.39,21.61c1.3-0.71,2.71-1.53,4.16-2.34c-0.57-1.95-0.26-2.93,0.66-5.21c0.95,1.22,1.82,2.34,2.7,3.47
				c3.18-1.5,6.32-2.45,8.71-1.52c3.92,1.52,7.88,2.2,11.77,3.16c0.92-0.3,1.77-0.47,2.51-0.51c2.43-1.65,5.66-2.04,8.12-0.81
				c0.87-0.78,1.58-1.41,2.19-1.96c-0.12-0.25-0.23-0.49-0.35-0.74c-1.33,0.46-2.66,0.93-3.99,1.39c-0.85-5.39,4.27-10.46,9.73-9.67
				c1.81-2.98,1.43-5.87,0.62-8.86c-0.2-0.73-0.42-1.46-0.64-2.21c-0.51-1.7-0.75-3.47-0.95-5.25c-0.16-1.52-0.29-3.07-0.52-4.58
				c-0.12-0.75-0.51-1.45-0.89-2.48c-1.58,0.97-2.94,1.8-4.46,2.74c-0.34-1.73-0.65-3.32-0.96-4.86c-0.12-0.55-0.22-1.1-0.33-1.64
				c-0.22-1.07-0.42-2.13-0.62-3.18c0.18-0.06,0.38-0.12,0.57-0.18c0.1-0.03,0.19-0.06,0.28-0.09c0.24,0.53,0.48,1.09,0.71,1.64
				c0.01,0.02,0.02,0.04,0.03,0.06c0.55,1.27,1.13,2.6,1.75,4.03c0.1,0.25,0.2,0.47,0.31,0.72c0.24-0.13,0.48-0.26,0.72-0.38
				c1.98-1.05,3.56-1.86,4.03-3.96c0.08-0.38,0.12-0.8,0.13-1.28c0-0.2,0.03-0.37,0.02-0.58c-0.12-2.25,2.6-3.27,5.06-1.2
				c0.06,0.05,0.11,0.08,0.16,0.12c-1.18,1.38-1.25,2.71-0.89,4.06c0.87,3.2,4.26,6.48,1.22,10.65c-0.08-1.54-0.04-2.05-0.16-2.55
				c-0.09-0.39-0.35-0.73-0.6-1.19c-1.09,1.72-2.08,3.26-3.26,5.12c0.69,0.49,1.77,1.58,2.05,1.4c2.73-1.7,5.38-0.35,7.37,0.84
				c0.5,0.3,0.97,0.59,1.38,0.83c2.75,1.53,5.32,5.66,5.6,8.87c0.36,4.1-0.04,8.23-0.01,12.39
				C351.96,308.51,357.12,309.41,362.17,311.26z M231.77,324.93c0.15-0.22,0.3-0.44,0.45-0.66c3.64,0.12,7.28,0.24,11.41,0.39
				c-0.97,1.56-1.99,3.22-3.06,4.94C237.52,327.98,234.65,326.46,231.77,324.93z M254.71,346.01c-0.31,0.44-0.62,0.88-0.92,1.32
				c-4.48-1.96-8.96-3.93-13.77-6.05c0.15-2.79,0.31-5.71,0.51-9.25c0.82-0.16,1.83-0.36,3.19-0.63c-0.51,1.15-0.85,1.95-1.23,2.84
				c1.25,0.05,2.34,0.08,3.43,0.13c-0.24,1.19-0.48,2.38-0.51,2.51C248.79,340.2,251.75,343.1,254.71,346.01z M287.36,297.41
				c-1.42-1.18-2.69-2.21-3.57-2.93c0.61-1.61,1.6-3.01,1.56-4.38c-0.1-3.38,1.67-3.6,3.97-3.35c0.56,2.82,1.07,5.39,1.56,7.9
				C288.39,292.92,288.52,296.32,287.36,297.41z M381.52,304.99c-1.19,0.72-2.11,1.28-3.02,1.83c-1.21-1.21-2.34-2.35-3.48-3.5
				c1.49-1.01,2.73-1.85,3.91-2.65c0.97,0.87,1.71,1.54,2.71,2.44c0.84-2.54-1.44-6.4,2.94-6.18c-0.89,9.22-1.76,18.26-2.63,27.3
				C378.36,317.96,382.21,311.6,381.52,304.99z M409.3,289.2c0.22-0.17,0.43-0.35,0.65-0.52c0.45,0.08,0.89,0.16,1.36,0.23
				c0.28,2.3,0.56,4.61,0.84,6.91c0.03-0.01,0.05-0.02,0.08-0.02c-0.03,0.04-0.03,0.07-0.07,0.11c0,0,0,0.01,0,0.02
				c2.35,0.98,7.2-0.89,5.41,4.95c-1.25,0.39-2.6,0.8-4.36,1.34c0.59-2.4-3.3-3.68-1.05-6.3c0-0.03,0-0.06,0-0.08
				c-2.45,0.88-4.47,0.85-4.77-2.57c-0.01-0.09-0.03-0.16-0.03-0.25c-1.38,0.81-2.26,1.34-3.14,1.86c-0.24-0.31-0.47-0.62-0.72-0.93
				C405.42,292.35,407.36,290.78,409.3,289.2z M396.5,292.17c0.27,2.68-0.17,5.18-0.16,7.68c0.01,2.06-3.03,4.32-0.23,6.27
				c0.09,0.06,0.13,0.13,0.24,0.19c0.12-0.26,0.22-0.51,0.34-0.77c1.23-2.82,2.42-5.57,3.6-8.29c0.48,0.23,0.96,0.46,1.43,0.69
				c-0.43,1.3-0.86,2.61-1.29,3.92c-1.42,4.33-2.87,8.73-4.43,13.46c-1.42-1.62-2.13-2.42-3.01-3.43c-0.62,1.81-1.07,3.14-1.52,4.43
				c-1.3,0-2.46,0-3.69,0c-0.3,0-0.58,0-0.9,0c0.45-2.68,1.66-5.36,1.01-7.47c-0.62-2.01,0.21-2.8,0.56-4.32
				c0.8-3.53,3.26-5.38,5.22-7.83c0.42-0.53,0.92-1.61,0.68-1.96C392.01,291.34,395.45,292.89,396.5,292.17z"/>
			<path class="st0" d="M118.2,79.91c-4.52,6.09-6.79,12.82-7.81,19.9c-0.48,3.3-0.71,6.68-0.72,10.11c-0.01,1,0.39,2,0.8,2.99
				c0.32,0.79,0.65,1.59,0.81,2.4c0.02,0.1,0,0.21,0.02,0.31c0.09,1.04-0.28,2.17-0.36,3.26c-0.01,0.1,0,0.21-0.01,0.31
				c-0.03,0.55-0.02,1.11,0.01,1.64c0.15,2.16,0.77,4.19,1.54,6.18c0.6,1.54,1.29,3.07,1.88,4.6c0.9,2.31,2.79,4.22,3.88,6.48
				c1.53,3.18,4.15,3.34,6.95,2.8c3.62-0.68,7.26-1.33,10.87-2.12c2.85-0.63,5.67-1.36,8.42-2.31c2.23-0.77,4.41-1.66,6.53-2.77
				c2.95-1.53,5.18-3.71,4.51-7.75c-0.47-2.83-0.22-5.53-1.58-8.44c-0.08-0.19-0.12-0.37-0.22-0.55c-0.18-0.36-0.33-0.74-0.44-1.14
				c-0.08-0.32-0.13-0.67-0.18-1.02c-0.22-1.92,0.14-4.14,0.16-6.26c0-0.72-0.01-1.44-0.13-2.12c-0.36-2.15-2.04-4.13-3.29-6.09
				c-0.87-1.34-1.83-2.75-3.06-3.71c-1.47-1.15-3.24-2.44-4.98-2.6c-2.12-0.2-4.36,0.71-6.27,1.09c-0.78,2.75-1.43,5.02-2.09,7.35
				c-1.81-1.31-3.44-2.51-5.71-4.15c1.75-0.83,3.6-1.7,5.44-2.57c-0.02-0.28-0.04-0.55-0.05-0.84c-3.4-0.55-6.8-1.1-10.19-1.64
				c-0.01-0.42-0.01-0.84-0.02-1.25c3.58-0.36,5.27-5.35,9.74-3.5c0.91,0.38,1.92,0.68,2.63,1.32c2.41,2.17,6.56,2.52,11.1,0.02
				c-5.8-1.09-8.63-4.85-11.45-9.46c-1.11,2.1-1.74,3.32-2.54,4.81c-0.36-1.83-0.53-3.46-1.03-4.99c-0.34-0.99-0.96-2.11-1.78-2.65
				C126.5,75.5,120.42,76.92,118.2,79.91z"/>
			<path class="st0" d="M231.35,184.47c1.22,3.82,1.58,8.07,1.5,12.11c-0.11,5.24,3.7,8.41,5.89,12.33
				c0.71,1.28,1.74,2.34,2.14,4.01c0.44,1.8,1.5,3.48,2.45,5.12c0.79,1.36,1.85,2.55,2.75,3.87c1.15,1.69,1.72,4.97,4.65,1.51
				c0.16-0.18,1.75,0.87,3.06,1.55c0.1-1.4,0.19-2.45,0.28-3.71c1.39,0.83,2.77,1.96,3.93-0.36c0.13-0.24,2.64,2.51,4.34,0.23
				c1.01-1.36,2.11-2.64,3.29-4.1c4.96,1.76,12.82-2.41,13.42-7.91c1.03-9.24,1.07-18.35-3.6-26.99c-1.15-2.13-0.18-5.38-0.29-8.12
				c-0.07-1.76-0.43-3.52-0.46-5.28c-0.09-5.22-4.06-7.27-8.75-8.16c-5.88-1.12-10.05,3-15.3,3.26c-2.02,0.11-3.63,0.86-5.56-1.28
				c-2.43-2.68-8.65-0.71-10.79,3.02C230.93,171.45,229.11,177.49,231.35,184.47z M267.58,197.51c0.63,0.7,1.83,1.42,1.8,2.09
				c-0.12,3.01-0.6,6-0.95,9c-0.23,0.05-0.45,0.1-0.67,0.15c-0.62-3.14-1.33-6.26-1.77-9.43
				C265.92,198.8,267.02,198.11,267.58,197.51z"/>
			<path class="st0" d="M153.24,199.81c0.26-0.13,0.52-0.28,0.78-0.43c1.3-0.77,2.51-1.74,3.57-3.17c1.62-2.19,6.1-2.45,9.37-3.22
				c4.99-1.15,6.18-3.22,4.57-7.86c-0.86-2.49-1.09-5.2-1.81-8.85c4.54-3.55,0.13-7.59-0.94-11.26c-2.19-7.51-5.15-14.82-8.32-21.99
				c-0.9-2.04-3.67-3.22-5.47-4.9c-2.25-2.1-4.02-1.22-6.38,0.16c-1.02,0.59-2.11,1.09-3.21,1.55c-2.34,0.99-4.79,1.78-7.11,2.84
				c-0.08,0.03-0.15,0.09-0.23,0.12c-1.6,0.77-3.1,1.8-4.52,2.86c-3.65,2.72-5.32,6.87-6.3,10.94c-0.49,2.04,1.09,4.74,2.17,6.92
				c0.21,0.41,0.67,0.8,1.19,1.11c0.64,0.37,1.38,0.63,1.98,0.63c1.53-0.01,3.05-0.1,4.57-0.17c2.76-0.14,5.49-0.32,8.14-0.47
				c1.12-1.09,0.67-2.13-0.05-3.22c-1.03-1.56-2.58-3.18-0.85-5.05c0.37-0.39,0.85-0.79,1.54-1.21c-0.26,1.74-0.16,3.14,0.18,4.33
				c0.17,0.57,0.4,1.08,0.68,1.55c1.59,2.71,4.84,3.9,7.93,5.21c-0.08,0.36-0.17,0.74-0.25,1.11c-6.56,0.01-13.1,0.02-19.64,0.04
				c-0.56,0-1.13,0.01-1.69,0.01c-0.07,0-0.14,0-0.2,0c-0.58,0-1.17,0-1.74,0c-0.25,3.09-0.24,4.92,0.25,6.46
				c0.47,1.5,1.39,2.71,2.99,4.53c1.01,2.81,2.31,5.54,2.93,8.43c0.38,1.77,0.45,3.62,0.47,5.46c0.02,0.84,0.03,1.68,0.05,2.52
				c0.01,0.06,0.01,0.12,0.01,0.17c0,0.07-0.01,0.14-0.01,0.21c0.01,1.37-0.34,2.78-0.12,4.1c0.43,2.57,1,4.01,2.13,4.5
				c0.9,0.38,2.14,0.17,4.01-0.65c0.21-0.1,0.44-0.17,0.66-0.25c2.79-1.11,5.85-1.64,8.61-3.02
				C153.2,199.83,153.22,199.82,153.24,199.81z"/>
			<path class="st0" d="M259.66,151.41c-4.56,0.13-8.27,2.35-12.28,3.5c-3.79,1.09-8.26,0.1-12.65,1.9
				C243.4,163.21,256.01,160.36,259.66,151.41z"/>
			<path class="st0" d="M342.32,200.62c0.02-0.43,0.04-0.85,0.06-1.27c1.5-0.41,2.98-0.93,4.5-1.21c1.75-0.31,3.53-0.4,5.68-0.63
				c-0.87-3.71-0.7-6.2,1-9.42c1.62-3.08,0.53-7.83-0.24-11.85c-0.04-0.21-0.08-0.41-0.12-0.62c-0.41-2.18-4.68-1.68-7.35,0.83
				c-0.83-1.58-1.63-3.13-2.6-5c-5.55,1.94-10.96,3.81-16.34,5.76c-0.7,0.25-1.85,1.21-1.78,1.41c1.98,4.63-3.16,7.86-2.32,12.33
				c0.36,1.9,0.64,2.9,2.8,3.04c1.25,0.09,2.38,1.38,3.65,1.59c2.25,0.38,4.57,0.34,7.4,0.51c5.89,3.28,4.19,8.15,1.05,13.56
				c-0.95-0.71-1.84-1.37-3.26-2.42c-0.54,1.39-1.53,2.71-1.39,3.89c0.15,1.35,1.18,3.6,2.04,3.71c3.33,0.42,5.05,2.55,6.97,4.82
				c0.69,0.81,2.35,1.54,3.21,1.24c0.81-0.28,1.48-1.88,1.65-2.99c0.02-0.16,0.04-0.32,0.06-0.48c0.36-2.36,0.68-4.78,0.51-7.15
				C347.23,206.44,346.22,202.77,342.32,200.62z"/>
			<path class="st0" d="M264.83,121.2c-0.13-0.19-0.24-0.4-0.36-0.59c-0.84-1.31-1.55-2.77-2.01-4.27
				c-0.21-0.69-0.38-1.38-0.47-2.07c-0.36-2.73-0.74-5.41-1.37-8.03c-0.65-2.71-1.55-5.36-2.98-7.96c-1.24-2.27-0.06-5.95,0.25-8.97
				c0.36-3.29-0.67-4.54-3.87-3.87c-4.57,0.96-9.16,1.86-13.72,2.87c-3.69,0.81-7.38,1.68-11,2.73c-2.04,0.58-3.65,2.54-5.39,4.23
				c-0.53,0.52-1.09,1.02-1.67,1.44c-3.44,2.48-1.96,5.37-1.09,8.31c0.32,1.09,0.46,2.23,0.67,3.34c-0.23,0.09-0.47,0.18-0.69,0.28
				c1.46,3.52,2.73,7.13,4.45,10.53c2.08,4.14,1.87,8.55,2.32,12.94c0.64,6.21,1.19,12.48,2.59,18.53c0.92,4,4.34,4.96,7.9,2.77
				c2.36-1.46,4.14-3.95,6.58-5.16c2.92-1.45,6.44-3.18,9.41-2.75c5.96,0.83,8.52-1.41,9.8-6.82c0.2-0.83,0.61-1.61,1.07-2.39
				c0.77-1.28,1.66-2.54,2.05-3.92C268.45,128.33,267.22,124.68,264.83,121.2z M230.9,110c2.23-1.89,3.98-3.38,5.87-4.98
				c0.34-0.29,0.67-0.57,1.03-0.87c-0.37-0.65-0.78-1.38-1.21-2.14c-0.07-0.12-0.13-0.23-0.19-0.34c-0.36-0.63-0.72-1.28-1.08-1.92
				c1.07-1.39,2.45-2.39,3.83-2.97c1.49-0.62,2.99-0.73,4.15-0.19c0.26,0.12,0.51,0.26,0.73,0.45c3.06,2.61,0.71,4.82-1.54,7.69
				c2.1,0.43,3.54,0.72,5.01,1.02c-0.46,1.8-0.98,3.84-1.5,5.88c-2.25-3.63-4.03-5.11-6.1-3.97c-1.2,0.67-2.49,2.22-4.02,4.79
				C234.59,111.81,233.24,111.15,230.9,110z M241.38,127.43c-0.36,1.11-0.71,2.18-1.07,3.24c-0.47,0.01-0.95,0.02-1.44,0.02
				c-0.25-1.68-0.49-3.34-0.61-4.17c2.4-1.02,3.85-1.64,5.3-2.25c0.58,1.36,1.2,2.8,2.29,5.34
				C243.86,128.65,242.71,128.08,241.38,127.43z M238.51,123.6c-0.81-0.65-1.52-1.22-1.81-1.45c1.15-3.22,2.12-6.18,3.3-9.05
				c0.37-0.9,1.28-2.1,2.02-2.16c0.71-0.06,1.64,1.09,2.3,1.87c1.08,1.26,2.03,2.63,3.04,3.98
				C244.45,118.43,239.95,118.73,238.51,123.6z"/>
			<path class="st0" d="M227.38,78.8c0.62-0.13,1.25-0.39,1.86-0.93c0.82-0.71,1.8-1.58,2.79-1.71c5.24-0.7,10.5-1.19,15.73-1.75
				c-0.08,0.97-0.18,2.13-0.31,3.62c7.09-4.89,8.44-7.83,6.85-14.46c-0.99-4.12-2.17-8.25-2.59-12.44
				c-0.38-3.68,0.63-7.51,0.22-11.19c-0.49-4.35-1.63-8.67-2.88-12.89c-0.84-2.83-0.24-6.85-3.9-7.11
				c-0.31-2.06-0.12-3.58-0.76-4.58c-2.19-3.46-4.53-6.86-7.13-10.02c-1.05-1.27-2.89-1.99-4.5-2.69c-1.9-0.83-4.11-1.05-5.88-2.07
				c-3.15-1.82-5.52,1.2-8.19,0.96c-3.51-0.32-4.37,2.34-6.43,3.98c-6.9,5.44-9.75,13.2-10.71,20.91
				c-1.3,10.27-1.22,20.96,4.84,30.38c2.67,4.17,5.18,8.44,7.81,12.62c0.58,0.91,1.29,2.03,2.19,2.37c2.89,1.1,5.81,1.85,7.65,4.58
				c0.24,0.34,0.45,0.71,0.65,1.12C225.22,78.66,226.26,79.03,227.38,78.8z"/>
			<path class="st0" d="M168.33,197.5c-0.05,0.01-0.1,0.03-0.15,0.04c-2.59,0.65-5.11,1.29-7.49,2.31
				c-0.02,0.01-0.05,0.02-0.07,0.03c-1.43,0.62-2.8,1.37-4.11,2.36c-0.95,0.72-2.09,1.18-3.27,1.59c-0.49,0.18-0.98,0.36-1.47,0.54
				c-0.93,0.32-1.83,0.66-2.65,1.14c-0.78,0.46-1.43,1.14-2.05,1.87c-0.53,0.63-1.04,1.29-1.59,1.88c1.38,0.5,2.84,1.56,4.13,1.38
				c3.59-0.48,7.27-1.04,10.59-2.36c1.6-0.64,3.16-1.39,4.7-2.19c1.53-0.78,3.05-1.6,4.56-2.43c1.03-0.57,2.07-1.13,3.11-1.67
				c0.01-0.24,0.02-0.5,0.02-0.74c0.06-1.48,0.12-3.02,0.2-4.96C171.29,196.75,169.8,197.13,168.33,197.5z"/>
			<path class="st0" d="M321.19,86.57c4.15-1.62,8.32-1.62,12.53-0.41c1.36,0.39,2.57,0.54,3.73,0.58
				c6.17,0.22,9.42-4.31,9.34-11.73c-0.11-9.42-3.18-18.65-0.85-28.38c1.04-4.34,1.99-9.77-1.93-14.7
				c-0.28-0.36-0.46-0.77-0.71-1.14c-2.68-4.01-3.88-9.16-6.08-13.62c-0.41-0.84-0.94-1.64-1.56-2.41
				c-4.1-5.16-12.33-8.71-19.39-7.45c-1.64,1.18-5.15,2.71-7.16,5.36c-3.89,5.14-9.24,9.72-9.11,17.07
				c0.09,4.86-0.45,9.85,0.45,14.56c1.29,6.73,3.02,13.37,4.81,20c0.54,2.03,1.09,4.05,1.63,6.06c0.56,2.12,1.22,4.23,1.92,6.31
				c0.63,1.88,1.3,3.74,2.01,5.58c0.79,2.09,4.12,3.92,7.07,4.43C319.13,86.91,320.31,86.91,321.19,86.57z"/>
			<path class="st0" d="M347.81,99.37c-0.2-2.37-0.38-4.76-0.59-7.13c-0.21-2.57-3.88-4.68-6.82-3.87c-0.33,0.1-0.63,0.25-0.95,0.36
				c-1.8,0.63-3.54,1.51-5.29,2.29c-4.06,1.81-8.01,4.79-12.19,5.16c-4.17,0.36-5.12,3.14-6.32,5.48c-0.09,0.18-0.18,0.36-0.27,0.52
				c-0.81,1.46,0.15,4.48,1.19,6.29c2.73,4.75,4.92,9.48,4.65,15.17c-0.03,0.6,0.02,1.2,0.11,1.81c0.24,1.68,0.82,3.37,1.15,5.06
				c0.55,0.02,1.11,0.06,1.66,0.1c0.73-0.89,1.47-1.77,2.21-2.66c0.23,0.12,0.45,0.24,0.69,0.36c-0.69,1.47-1.37,2.93-2.17,4.62
				c1.77,0.99,3.55,2,5.83,3.29c-1.74,0.34-3.05,0.6-4.37,0.86c0.99,0.47,1.77,1.24,2.55,2c1.24,1.21,2.47,2.38,4.59,2.11
				c0.81-0.1,1.9,1.99,3.18,3.42c-2.33,0.06-3.94-0.24-5.2,0.28c-0.86,0.36-1.8,1.92-1.7,2.84c0.09,0.85,1.4,2.01,2.37,2.25
				c2.59,0.64,5.04,0.18,7.34,3.02c1.26,1.54,6.03,0.24,10.2,0.21c-1.6-2.44-2.7-3.52-3.06-4.82c-0.36-1.23-0.37-3.65,0.16-3.87
				c3.35-1.4,1.96-4.33,2.05-6.38c0.18-4.31,0.22-8.63,0.21-12.95c-0.02-3.18-0.05-6.37-0.18-9.55
				C348.65,110.19,348.25,104.78,347.81,99.37z M329.44,125.66c-1.29-3.34-2.54-6.11-3.44-8.98c-1.86-5.87-0.07-10.09,5-12.03
				c1.76,3.51,1.18,6-3.2,6.78c0.55,2.09,0.99,3.77,1.28,4.89c3.82-0.01,7.15-0.02,10.85-0.04c-3.49,4.62-4.5,4.92-9.71,3.21
				c0.33,3.1,1.83,4.1,4.9,3.56C333.2,123.93,331.28,124.82,329.44,125.66z"/>
			<path class="st0" d="M273.1,403.72c-0.43,2.51,1.76,4.22,3.99,4.17c0.92,3.79,0.52,7.41-0.95,10.65
				c5.16,4.08,7.96,11.49,6.12,17.17c2.37,0.3,5.14,1.22,6.18,3.65c1.87,4.37,1.96,7.94,0.91,10.75c1.62-1.94,3.99-3.63,7.25-4.84
				c4.58-1.7,8.33,2.11,9.25,6.18c0.24-1.29,0.57-2.57,0.99-3.81c0.34-0.11,0.66-0.27,0.96-0.47c0.1,0.1,0.19,0.21,0.3,0.31
				c0.34,0.31,0.75,0.51,1.17,0.65c0.01,0.02,0.02,0.04,0.03,0.04c1.82,2.2,5.57,2.41,7.41,0.27c1.84,0.97,4.31,0.45,5.85-0.93
				c0.38,0.1,0.75,0.2,1.13,0.3c-0.65,0.75-1.29,1.24-1.92,1.53c0.11,2.53-0.08,5.15-0.58,7.69c1.85,1.72,7.11-3.1,6.03-10.81
				c-0.46-1.05-0.86-2.19-1.24-3.41c2.33,0.67,5.13-0.77,6.25-2.96c0.32-0.63,0.54-1.25,0.83-1.88c1.24,0.23,2.54-0.04,3.53-1.01
				c2.08-2.05,3.59-4.26,4.78-6.61c0.3,0.12,0.61,0.2,0.93,0.24c-0.52,1.86-1.21,3.67-2.82,5.15c0.04,0.1,0.08,0.19,0.11,0.28
				c0.02-0.01,0.03-0.01,0.04-0.02c0.04,0.16,0.08,0.27,0.12,0.43c0.28,0.76,0.54,1.52,0.78,2.29c1.92,3.96,4.59-1.07,5.84-5.99
				c-0.12-1.06-0.14-2.16-0.12-3.28c0.61-0.47,1.15-1.03,1.5-1.74c1.11-2.21,2.32-4.06,3.41-5.93c2.32,0.97,4.8,0.08,6.25-2.53
				c2.55-4.58,2.64-7.55,2.22-12.54c0.06-0.09,0.08-0.18,0.14-0.27c0.54-0.91,1.24-1.61,1.98-2.17c-0.27-0.07-0.47-0.1-0.72-0.16
				c0.27-0.42,0.46-0.84,0.71-1.27c0.43,0.2,0.9,0.4,1.46,0.58c2.67-1.13,5.86-0.57,8.14,1.49c2.21-3.34,3.93-7.25,4.48-10.87
				c-1.15,0.29-2.31,0.55-3.56,0.69c-3,0.34-5.13-1.56-6.35-3.95c1.29-8.73-2.22-16.98-8.35-24.29c-0.86-1.03-2.02-1.46-3.17-1.52
				c-0.43-0.91-1.16-1.56-2.06-1.95c0.08-1.3,0.11-2.65,0.03-4.11c-0.21-3.9-4.84-4.5-7.18-2.36c-1.72-2.96-4.19-4.47-7.02-4.76
				c-0.62-0.13-1.24-0.17-1.86-0.06c-3.14,0.18-6.54,1.59-9.7,3.77c-0.83-1.98-3.23-3.05-5.42-2.27c-1.97,0.71-3.69,1.35-5.29,2.11
				c-0.01-0.41-0.01-0.83-0.01-1.23c-0.02-2.87-3.24-3.91-5.54-3.11c-0.33,0.12-0.64,0.27-0.92,0.46c-0.38,0.26-0.7,0.56-1.06,0.83
				c-1.21-0.46-2.61-0.41-3.67,0.5c-0.41,0.36-0.73,0.75-1.12,1.13c-0.5,0.48-0.99,0.97-1.45,1.46c-3.72,4.01-6.34,8.61-8.53,13.52
				c-1.15,0.85-2.19,1.76-3.15,2.71c-0.85-0.06-1.76,0.12-2.58,0.61c-7.07,4.21-9.98,10.39-11.93,17.94
				c-0.12,0.48-0.26,0.95-0.37,1.44c-0.08,0.33-0.05,0.63-0.03,0.93c-0.47,1.7-0.88,3.42-1.26,5.17c-0.13,0.62-0.25,1.27-0.38,1.9
				c-0.1,0.46-0.18,0.92-0.26,1.38C273.45,401.93,273.27,402.8,273.1,403.72z M350.59,393.33c0.03,3.13,1.22,5.76,3.62,8.4
				c-0.26,0.64-0.61,1.12-0.99,1.49c-0.85-2.46-2.31-4.86-4.25-7.2c-0.1-0.75-0.22-1.5-0.39-2.23
				C349.14,393.53,349.8,393.37,350.59,393.33z M279.51,407.97c1.08,0.24,2.17,0.48,3.25,0.73c3.71,4.49,7.6,8.74,11.53,12.97
				c-0.07,1.84,0,3.69,0.24,5.54c-1.76-2.31-3.53-4.62-5.33-6.91C285.96,416.19,282.74,412.08,279.51,407.97z M295.27,441.32
				c-0.57-0.02-1.15-0.05-1.73-0.07c-0.55-1.48-0.96-3.03-1.71-4.4c-0.63-1.16-1.67-2.09-2.83-3.5c3.97-0.81,6.18,0.52,7.06,3.14
				C296.53,437.86,295.58,439.7,295.27,441.32z M311.28,420.1c-0.93-0.8-2.04-1.17-3.16-1.13c0-0.01-0.01-0.02-0.01-0.03l-0.05,0.03
				c-1.24,0.05-2.4,0.61-3.27,1.6c-0.45-0.86-1.05-1.44-1.73-1.82c0.3-0.63,0.59-1.24,0.9-1.9c1.64,0.21,3.4-0.34,4.37-1.82
				c0.55,1.51,0.97,3.03,3.3,1.98C311.53,418.08,311.41,419.09,311.28,420.1z M317.42,378.65c-0.04,0.3-0.05,0.57-0.09,0.87
				c-0.6,4.22,5.13,6.48,7.62,3.07c1.93-2.64,3.57-5.32,5.08-8.05c1.3,0.03,2.59-0.43,3.39-1.61c0.6-0.89,1.14-1.76,1.7-2.64
				c0.75,2.55,1.73,5.09,3.01,7.76c1.36,2.83,4.79,3.41,6.97,1.31c0.08,0.31,0.14,0.6,0.22,0.91c-1.17,1.09-2.16,2.21-2.99,3.36
				c-2.03-1.29-5-1.61-6.41,0.86c-1.27,2.23-2.29,4.47-3.18,6.74c-1.83-1.54-4.63-1.74-6.32,0.62c-1.32,1.86-2.46,3.75-3.5,5.69
				c-0.31-0.75-0.6-1.5-1-2.25c-0.69-1.29-2.17-2.33-3.69-2.61c-1.15-2.37-4.16-3.18-6.34-1.74c-0.55-0.3-1.16-0.47-1.78-0.55
				c-0.78-0.1-1.59-0.04-2.33,0.24c0.06-1.16-0.34-2.07-1.07-2.7c0.4-0.7,0.79-1.4,1.18-2.11c0.63-1.13,1.28-2.26,1.91-3.4
				c1.76,0.81,4.13,0.58,5.51-1.05C316.04,380.49,316.73,379.57,317.42,378.65z"/>
			<path class="st0" d="M256.49,326.71c-6.88,5.86-9.66,25.56-2.52,32.24c7.67,7.18,20.55-1.5,23.59,11.18
				c1.59,6.61-11.24,24.79,6.93,16.48c9.2-4.21,11.01-17.54,22.41-21.74c22.59-8.33,50.51,3.64,44.85,30.49
				c-4.23,20.07-25.08,28.53-24.06,50.17c-19.26-1.64-58.98,32.3-34.58,47.93c16.7,10.7,53.22-15.23,62.52-27.09
				c7.27-9.27,14.32-20.88,19.51-31.84c7.47-15.79,2.8-23.49,3.18-39.2c0.3-12.23,3.44-22.2,1.01-34.69
				c-4.16-21.38,9.42-53.82-23.21-57.95c0.3-13.82-23.86-46.87-37.01-33.16c-12.02,12.52,3.13,23.92-13.96,33.06
				c-10.04,5.37-21.7,2.15-30.47,5.91"/>
		</g>
		<path class="st0" d="M388.14,323.9c-19.65-2.61-21.12,14.01-19.68,29.09c0.76,7.94-0.04,31.28,6.9,34.21
			c-2.5,11.58-2.75,21.82,1.57,33.33c7.55,20.13,16.57,5.69,23.81-10.82c8.16-18.61,11.47-66.11-7-80.21"/>
	</g>
</g>
</svg>
